<svg enable-background="new 0 0 256 256" height="512" viewBox="0 0 256 256" width="512" xmlns="http://www.w3.org/2000/svg"><path d="m99.165 70.602h-35.833v-17.917c0-9.895 8.022-17.917 17.917-17.917 9.895 0 17.917 8.022 17.917 17.917v17.917z" fill="#f9d335"/><path d="m88.749 36.415c-6.15 2.83-10.42 9.05-10.42 16.27v17.92h-15v-17.92c0-9.9 8.02-17.92 17.92-17.92 2.68 0 5.22.59 7.5 1.65z" fill="#f9e27d"/><path d="m143.636 183.76c-5.346-4.745-8.406-11.551-8.406-18.699v-53.171c0-26.03-20.71-45.97-45.32-47.45-4.739-.256-14.524-.151-17.32 0-24.61 1.48-45.32 21.42-45.32 47.45v53.171c0 7.148-3.06 13.954-8.406 18.699l-11.864 10.529c-3.431 3.044-1.295 8.715 3.292 8.74 46.016.256 92.349.272 141.908-.001 4.586-.025 6.73-5.696 3.3-8.74z" fill="#f9d335"/><path d="m72.589 64.435c-24.61 1.48-45.32 21.42-45.32 47.45v53.18c0 7.14-3.06 13.95-8.4 18.69l-11.87 10.53c-3.43 3.05-1.29 8.72 3.29 8.74l14.995.079c-4.58-.02-6.715-5.768-3.285-8.818l11.87-10.53c5.34-4.74 8.4-11.55 8.4-18.69v-53.18c0-26.03 20.71-45.97 45.32-47.45.32-.02.74-.03 1.23-.05-5.01-.191-13.63-.091-16.23.049z" fill="#f9e27d"/><path d="m155.499 194.285-11.86-10.53c-5.35-4.74-8.41-11.55-8.41-18.69v-53.18c0-26.03-20.71-45.97-45.32-47.45-4.19-.22-12.34-.17-16.09-.05.39.02.75.03 1.09.05 24.61 1.48 45.32 21.42 45.32 47.45v53.18c0 7.14 3.06 13.95 8.41 18.69l11.86 10.53c3.43 3.05 1.261 8.797-3.329 8.817l15.029-.077c4.59-.02 6.73-5.69 3.3-8.74z" fill="#f2c300"/><path d="m82.499 234.435h-2.501c-17.26 0-31.251-13.992-31.251-31.251h65.004c-.001 17.26-13.992 31.251-31.252 31.251z" fill="#f9d335"/><path d="m88.749 233.805c-2.02.41-4.11.63-6.25.63h-2.5c-17.26 0-31.25-13.99-31.25-31.25h15c0 15.12 10.74 27.73 25 30.62z" fill="#f9e27d"/><path d="m248.173 95.554-16.757 9.565c-2.239 1.278-3.139 4.048-2.079 6.398l7.933 17.588c1.592 3.529-1.259 7.451-5.107 7.026l-19.182-2.12c-2.565-.283-4.924 1.431-5.446 3.958l-3.902 18.888c-.784 3.794-5.399 5.294-8.263 2.685l-14.265-12.992c-1.908-1.738-4.825-1.738-6.734 0l-14.265 12.992c-2.864 2.609-7.48 1.109-8.263-2.685l-3.902-18.888c-.522-2.527-2.881-4.242-5.446-3.958l-19.182 2.12c-3.848.425-6.699-3.496-5.107-7.026l7.933-17.588c1.06-2.35.16-5.12-2.079-6.398l-16.756-9.565c-3.362-1.919-3.362-6.766 0-8.685l16.757-9.565c2.239-1.278 3.139-4.048 2.079-6.398l-7.933-17.588c-1.592-3.529 1.259-7.451 5.107-7.026l19.182 2.12c2.565.283 4.924-1.431 5.446-3.958l3.902-18.888c.784-3.794 5.399-5.294 8.263-2.685l14.265 12.992c1.908 1.738 4.825 1.738 6.734 0l14.265-12.992c2.864-2.609 7.48-1.109 8.263 2.685l3.902 18.888c.522 2.527 2.881 4.242 5.446 3.958l19.182-2.12c3.848-.425 6.699 3.496 5.107 7.026l-7.933 17.588c-1.06 2.35-.16 5.12 2.079 6.398l16.756 9.565c3.362 1.919 3.362 6.766 0 8.685z" fill="#ff4a73"/><path d="m122.302 86.873 16.76-9.57c2.24-1.28 3.14-4.05 2.08-6.4l-7.93-17.59c-.97-2.13-.3-4.42 1.23-5.79l-11.13-1.23c-3.85-.43-6.7 3.5-5.1 7.02l7.93 17.59c1.06 2.35.16 5.12-2.08 6.4l-16.76 9.57c-3.36 1.92-3.36 6.76 0 8.68l16.76 9.57c2.24 1.27 3.14 4.04 2.08 6.39l-7.94 17.59c-1.59 3.53 1.26 7.45 5.11 7.03l11.14-1.23c-1.54-1.36-2.22-3.65-1.25-5.8l7.94-17.59c1.06-2.35.16-5.12-2.08-6.39l-16.76-9.57c-3.36-1.92-3.36-6.76 0-8.68z" fill="#f973a3"/><path d="m162.942 44.453 3.3-15.99-6.13-5.58c-2.87-2.61-7.48-1.11-8.27 2.68l-3.9 18.89c-.22 1.1-.79 2.04-1.58 2.73l11.13 1.23c2.57.28 4.93-1.43 5.45-3.96z" fill="#f973a3"/><path d="m157.492 134.013-11.13 1.23c.79.69 1.36 1.64 1.58 2.73l3.9 18.88c.79 3.8 5.4 5.3 8.27 2.69l6.13-5.59-3.3-15.98c-.52-2.53-2.88-4.25-5.45-3.96z" fill="#f973a3"/><path d="m192.532 137.973-3.3 15.98 6.14 5.59c2.86 2.61 7.48 1.11 8.26-2.69l3.9-18.88c.23-1.09.8-2.04 1.59-2.73l-11.14-1.23c-2.56-.29-4.92 1.43-5.45 3.96z" fill="#ea2a6a"/><path d="m203.632 25.563c-.78-3.79-5.4-5.29-8.26-2.68l-6.14 5.59 3.3 15.98c.53 2.53 2.89 4.24 5.45 3.96l11.14-1.23c-.79-.69-1.36-1.63-1.59-2.73z" fill="#ea2a6a"/><path d="m248.172 86.873-16.76-9.57c-2.23-1.28-3.13-4.05-2.07-6.4l7.93-17.58c1.59-3.53-1.26-7.46-5.11-7.03l-11.13 1.23c1.54 1.37 2.2 3.66 1.24 5.8l-7.93 17.58c-1.06 2.35-.16 5.12 2.07 6.4l16.76 9.57c3.36 1.92 3.36 6.76 0 8.68l-16.76 9.57c-2.23 1.27-3.13 4.04-2.07 6.39l7.93 17.59c.97 2.15.29 4.44-1.25 5.8l11.14 1.23c3.85.42 6.7-3.5 5.11-7.03l-7.93-17.59c-1.06-2.35-.16-5.12 2.07-6.39l16.76-9.57c3.36-1.92 3.36-6.76 0-8.68z" fill="#ea2a6a"/><g fill="#5f266d"><path d="m250.156 83.395-16.758-9.565c-.449-.256-.627-.807-.414-1.279l7.934-17.588c2.872-6.367-2.279-13.416-9.193-12.646l-19.182 2.12c-.512.05-.984-.284-1.09-.792l-3.901-18.889c-1.412-6.831-9.713-9.533-14.874-4.832l-14.266 12.992c-.385.351-.962.349-1.347 0l-14.265-12.992c-5.153-4.694-13.461-2.006-14.873 4.832l-3.902 18.888c-.105.509-.586.837-1.09.792l-19.183-2.12c-3.252-.357-6.345 1.007-8.268 3.654-1.925 2.647-2.271 6.009-.925 8.992l7.934 17.588c.199.442.045.943-.341 1.217-5.493-4.915-11.968-8.624-18.991-10.876v-10.208c0-5.867-2.282-11.373-6.417-15.494-4.132-4.144-9.634-6.426-15.493-6.426-12.087 0-21.92 9.833-21.92 21.92v10.218c-21.38 6.885-36.06 26.597-36.06 48.981v53.181c0 5.998-2.574 11.719-7.065 15.698l-11.863 10.532c-6.168 5.486-2.313 15.693 5.927 15.729 11.533.063 23.084.109 34.708.147 1.988 17.566 16.931 31.262 35.019 31.262h2.503c18.09 0 33.033-13.699 35.02-31.266 11.413-.033 22.967-.084 34.7-.143 8.224-.036 12.119-10.237 5.937-15.732l-11.869-10.529c-4.483-3.979-7.055-9.701-7.055-15.698v-26.668l3.703-.409c.5-.062.983.283 1.089.792l3.902 18.889c1.413 6.836 9.713 9.533 14.874 4.832l14.265-12.991c.382-.35.963-.35 1.347-.001l14.265 12.992c5.154 4.697 13.46 2.004 14.874-4.832l3.903-18.889c.104-.509.579-.847 1.088-.791l19.184 2.12c3.257.362 6.345-1.008 8.269-3.654s2.27-6.008.924-8.991l-7.935-17.59c-.213-.472-.034-1.022.416-1.279l16.757-9.564h.001c2.841-1.622 4.537-4.544 4.537-7.816s-1.698-6.196-4.54-7.818zm-182.824-30.712c0-7.676 6.244-13.92 13.92-13.92 7.656 0 13.91 6.197 13.91 13.92v8.3c-1.659-.26-3.341-.443-5.039-.544-4.907-.261-14.781-.16-17.771.001-1.672.1-3.349.283-5.021.547v-8.304zm-14.291 154.507c19.57.042 37.332.038 56.415-.004-4.59 31.043-51.824 31.01-56.415.004zm87.936-20.445 11.866 10.527c.697.619.27 1.747-.662 1.751-44.73.225-95.909.25-141.872 0-.927-.004-1.351-1.128-.652-1.749l11.857-10.527c6.201-5.494 9.758-13.397 9.758-21.684v-53.181c0-23.11 18.393-42.066 41.534-43.455 2.68-.145 12.395-.238 16.866-.001 8.863.53 17.667 3.713 25.084 9.583l-9.435 5.385c-2.841 1.622-4.537 4.544-4.537 7.816s1.696 6.194 4.538 7.816l16.757 9.564c.45.257.628.808.415 1.28l-7.934 17.588c-2.871 6.364 2.275 13.412 9.192 12.646l7.479-.827v25.784c.001 8.284 3.553 16.186 9.746 21.684zm105.213-94.664-16.757 9.564c-4.053 2.313-5.661 7.265-3.742 11.517l7.934 17.589c.197.438.054.784-.103.999-.156.214-.433.457-.919.406l-19.182-2.12c-4.638-.52-8.859 2.548-9.803 7.124l-3.902 18.888c-.159.768-1.077 1.06-1.653.537l-14.265-12.993c-3.454-3.144-8.665-3.146-12.12.001l-14.265 12.992c-.574.524-1.494.23-1.653-.537l-3.902-18.888c-.944-4.575-5.169-7.646-9.802-7.125l-19.183 2.12c-.782.084-1.34-.697-1.021-1.405l7.934-17.588c1.918-4.254.309-9.205-3.743-11.517l-16.756-9.564c-.417-.238-.504-.604-.504-.869s.087-.631.503-.869l16.758-9.564c4.051-2.313 5.659-7.265 3.742-11.517l-7.934-17.588c-.197-.438-.054-.785.103-1s.445-.463.919-.406l19.181 2.12c4.63.518 8.858-2.548 9.804-7.124l3.902-18.889c.16-.768 1.078-1.057 1.652-.536l14.266 12.993c3.455 3.145 8.666 3.146 12.119-.001l14.266-12.992c.577-.525 1.495-.227 1.653.537l3.901 18.889c.946 4.574 5.165 7.641 9.803 7.124l19.182-2.12c.765-.086 1.346.685 1.021 1.405l-7.934 17.589c-1.918 4.254-.309 9.205 3.743 11.516l16.756 9.564c.417.238.504.604.504.869s-.086.63-.503.869z"/><path d="m177.739 101.336c2.209 0 4-1.791 4-4v-38c0-2.209-1.791-4-4-4s-4 1.791-4 4v38c0 2.209 1.791 4 4 4z"/><circle cx="177.739" cy="116.586" r="6.5"/><path d="m62.45 80.384c-1.988.449-3.899 1.128-5.681 2.019-1.976.988-2.776 3.391-1.789 5.367.701 1.401 2.114 2.212 3.581 2.212.602 0 1.212-.136 1.786-.423 1.205-.604 2.506-1.064 3.866-1.372 2.154-.486 3.507-2.628 3.02-4.783-.486-2.156-2.625-3.506-4.783-3.02z"/><path d="m50.142 93.014c-1.948-1.052-4.371-.322-5.42 1.621-4.337 8.039-5.094 16.457-5.124 16.812-.188 2.198 1.441 4.129 3.64 4.32.117.01.234.015.35.015 2.05 0 3.796-1.57 3.981-3.649.006-.071.671-7.169 4.194-13.698 1.049-1.945.323-4.372-1.621-5.421z"/></g></svg>