<svg id="Capa_1" enable-background="new 0 0 512 512" height="512" viewBox="0 0 512 512" width="512" xmlns="http://www.w3.org/2000/svg"><path d="m459.863 190.457c1.659-8.157-1.592-17.135-8.09-22.338-4.039-3.234-9.225-4.925-14.398-4.925-3.149 0-6.294.627-9.168 1.915-1.018.456-2.001.987-2.952 1.501-1.485.802-2.888 1.559-4.402 2.05-6.929 2.243-13.59-1.447-20.64-5.355-3.154-1.749-6.416-3.557-9.723-4.8-5.997-2.255-12.454-2.646-18.698-3.025-4.602-.279-9.36-.567-13.85-1.606-6.67-1.544-13.078-6.173-15.947-11.518-1.814-3.38-2.133-6.878-.922-10.113.818-2.185 2.254-4.053 3.774-6.032 1.338-1.741 2.722-3.542 3.676-5.606 2.1-4.541 1.816-9.55 1.542-14.395-.18-3.173-.365-6.453.136-9.522.805-4.924 3.409-9.523 5.929-13.971 3.077-5.434 6.259-11.053 6.323-17.437.034-3.322-.799-6.539-1.606-9.649-.385-1.488-.784-3.027-1.075-4.537-1.2-6.238-.601-12.81 1.731-19.07l.563-.873c-23.285-9.678-47.766-15.576-72.511-17.715-2.436 6.931-9.343 14.228-12.171 20.939-1.348 3.2-1.687 6.739-2.875 10.002s-3.624 6.462-7.061 6.953c-1.053.151-2.166.041-3.144.461-2.679 1.148-2.437 4.969-3.668 7.612-1.294 2.777-4.459 4.294-7.517 4.485-3.058.192-6.066-.708-8.998-1.598-3.784-1.149-7.849-2.495-10.125-5.728-1.248-1.772-1.815-3.937-2.927-5.798-1.971-3.297-5.436-5.341-8.536-7.609-6.974-5.103-12.586-14.104-16.296-22.552-14.398 3.791-28.514 8.927-42.156 15.395l.566.847c.302 3.222 1.884 6.171 4.443 8.218l17.853 14.282c2.366 1.893 3.723 4.717 3.723 7.747v20.288c0 6.606 5.375 11.98 11.981 11.98h8.343c5.47 0 9.921 4.45 9.921 9.92v9.606c0 3.129-1.501 6.109-4.016 7.971l-48.98 36.282c-1.696 1.257-3.793 1.949-5.905 1.949h-30.281c-6.606 0-11.98 5.374-11.98 11.98v19.973c0 3.2 1.246 6.209 3.509 8.472l21.223 21.222c2.263 2.263 5.272 3.509 8.472 3.509h29.88c5.47 0 9.92 4.45 9.92 9.92v8.864c0 6.606 5.374 11.981 11.98 11.981h20.858c5.47 0 9.921 4.45 9.921 9.92 0 6.606 5.375 11.98 11.981 11.98h27.116c5.47 0 9.92 4.45 9.92 9.921v28.666c0 3.01-1.343 5.821-3.684 7.714l-40.885 33.056c-2.827 2.286-4.448 5.682-4.448 9.317v14.008c0 2.735-1.145 5.376-3.142 7.244l-15.354 14.366c-2.412 2.257-3.796 5.445-3.796 8.748v31.23c0 5.47-4.45 9.921-9.92 9.921h-16.296c-5.47 0-9.92-4.45-9.92-9.921v-19.923c0-1.789-.41-3.586-1.187-5.197l-11.389-23.656c-.642-1.333-.982-2.821-.982-4.303v-45.08c0-3.843-1.862-7.477-4.98-9.723l-43.041-30.99c-2.582-1.859-4.124-4.869-4.124-8.051v-31.176c0-1.684.433-3.353 1.252-4.824l2.272-4.08c2.601-4.674 1.765-10.568-2.033-14.334l-37.796-37.48c-1.865-1.85-2.935-4.417-2.935-7.044v-23.866c0-3.348-1.415-6.565-3.881-8.828l-18.613-17.076-.825-.657c-43.314 90.531-27.487 202.281 47.514 277.283 95.089 95.089 249.258 95.089 344.347 0 6.376-6.376 12.309-13.025 17.829-19.897h-1.303c-7.613-5.476-13.388-10.399-18.123-15.444-11.864-12.639-19.767-29.048-22.251-46.204-.434-2.999-.716-6.089-.988-9.076-.474-5.203-.965-10.583-2.279-15.765-1.801-7.106-5.136-13.807-8.361-20.288-4.309-8.659-8.38-16.838-9.231-26.033-1.217-13.15 5.017-26.498 15.883-34.004 6.375-4.404 14.051-6.735 21.473-8.988 7.001-2.126 14.24-4.324 20.556-8.266 1.602-1 3.35-2.286 4.159-4.233 1.138-2.74.069-5.438-.964-8.047-.438-1.105-.851-2.149-1.102-3.187-.934-3.861.443-7.714 1.901-11.794.754-2.107 1.532-4.284 1.981-6.491z" fill="#23a8fe"/><path d="m187.003 457.103c-5.47 0-9.92-4.45-9.92-9.921v-1.486c-6.73-5.43-13.239-11.27-19.492-17.522-56.254-56.253-79.22-133.183-68.916-206.326l-13.6-13.487c-1.865-1.85-2.935-4.417-2.935-7.044v-23.866c0-3.348-1.415-6.565-3.881-8.828l-18.613-17.076-.825-.657c-43.313 90.532-27.486 202.282 47.515 277.284 55.351 55.351 130.718 78.469 202.801 69.381-37.562-4.736-74.229-18.222-106.708-40.452z" fill="#0193fa"/><path d="m206.245 20.621c-14.398 3.794-28.522 8.906-42.164 15.377l.566.847c.302 3.222 1.884 6.171 4.443 8.218l17.477 13.982c10.18-7.417 20.812-13.928 31.775-19.57-5.042-5.167-9.164-12.179-12.097-18.854z" fill="#0193fa"/><path d="m274.607 281.882h-27.116c-6.048 0-10.951-4.903-10.951-10.951s-4.903-10.951-10.95-10.951h-20.858c-6.048 0-10.95-4.903-10.95-10.951v-8.864c0-6.048-4.903-10.951-10.95-10.951h-29.88c-2.905 0-5.69-1.154-7.743-3.207l-21.222-21.222c-2.054-2.054-3.207-4.839-3.207-7.743v-19.972c0-6.048 4.903-10.951 10.95-10.951h30.28c2.347 0 4.632-.754 6.518-2.151l48.98-36.282c2.788-2.065 4.433-5.33 4.433-8.799v-9.606c0-6.048-4.903-10.951-10.95-10.951h-8.343c-6.048 0-10.95-4.903-10.95-10.951v-20.287c0-3.327-1.512-6.473-4.11-8.551l-17.853-14.282c-2.598-2.078-4.11-5.224-4.11-8.551v-.461c-25.083 11.688-48.586 27.878-69.287 48.579-20.337 20.337-36.309 43.381-47.947 67.966l19.173 17.59c2.261 2.074 3.548 5.001 3.548 8.069v23.865c0 2.92 1.166 5.719 3.24 7.776l37.796 37.48c3.486 3.457 4.245 8.812 1.858 13.101l-2.271 4.08c-.907 1.629-1.382 3.462-1.382 5.326v31.179c0 3.522 1.694 6.829 4.552 8.887l43.041 30.99c2.858 2.058 4.552 5.365 4.552 8.887v45.08c0 1.645.37 3.269 1.084 4.75l11.39 23.655c.714 1.482 1.084 3.106 1.084 4.751v19.923c0 6.048 4.903 10.951 10.95 10.951h16.295c6.048 0 10.95-4.903 10.95-10.951v-31.23c0-3.031 1.256-5.926 3.469-7.996l15.354-14.367c2.213-2.07 3.469-4.966 3.469-7.996v-14.008c0-3.307 1.494-6.437 4.066-8.516l40.885-33.056c2.571-2.079 4.066-5.209 4.066-8.515v-28.666c-.003-6.047-4.905-10.949-10.953-10.949z" fill="#43cb8e"/><path d="m165.623 35.707v-.448c-52.768 24.578-94.598 67.781-117.234 116.534l19.173 17.59c2.261 2.074 3.547 5.001 3.547 8.069v23.865c0 2.92 1.166 5.72 3.24 7.776l14.156 14.038c6.903-50.953 29.921-100.14 69.085-139.305 9.405-9.405 19.395-17.867 29.842-25.408l-17.7-14.159c-2.597-2.078-4.109-5.225-4.109-8.552z" fill="#00ba66"/><path d="m512 256c0-62.315-23.772-124.629-71.317-172.174-23.558-23.558-50.745-41.271-79.758-53.156-2.624 6.507-3.49 13.722-2.163 20.618.899 4.671 2.711 9.225 2.662 13.981-.115 11.29-10.417 20.109-12.238 31.252-1.285 7.863 1.747 16.419-1.597 23.651-1.95 4.217-5.85 7.357-7.48 11.708-3.839 10.252 6.936 20.527 17.601 22.996s22.171.738 32.417 4.592c10.474 3.939 20.396 13.617 31.042 10.17 2.628-.851 4.937-2.461 7.458-3.59 7.259-3.251 16.293-2.097 22.501 2.874 6.209 4.972 9.309 13.535 7.724 21.329-1.288 6.329-5.391 12.454-3.873 18.731.867 3.586 3.532 7.189 2.117 10.597-.69 1.662-2.227 2.802-3.754 3.755-12.909 8.058-29.548 8.632-42.068 17.281-11.089 7.66-17.566 21.527-16.324 34.947 1.534 16.576 13.529 30.343 17.619 46.479 2.045 8.068 2.053 16.498 3.245 24.735 2.519 17.39 10.494 33.95 22.519 46.762 5.714 6.087 12.252 11.287 19.063 16.14 36.394-44.63 54.57-99.154 54.57-153.678z" fill="#43cb8e"/><path d="m421.17 169.639c2.628-.851 4.937-2.461 7.458-3.59 7.259-3.251 16.293-2.098 22.501 2.874 6.209 4.972 9.31 13.535 7.724 21.329-1.288 6.329-5.391 12.453-3.873 18.731.867 3.587 3.532 7.19 2.117 10.597-.041.099-.095.191-.142.286 11.283-5.136 24.39-6.715 34.987-13.329 1.526-.953 3.063-2.093 3.754-3.755 1.415-3.407-1.249-7.011-2.117-10.597-1.518-6.277 2.585-12.402 3.873-18.731.022-.108.033-.217.054-.325-2.695-7.464-5.768-14.821-9.216-22.045-6.112-4.071-14.345-4.842-21.063-1.833-2.521 1.129-4.83 2.739-7.458 3.59-10.646 3.446-20.569-6.232-31.042-10.17-10.247-3.853-21.752-2.123-32.417-4.592s-21.439-12.744-17.601-22.996c1.629-4.351 5.53-7.491 7.48-11.708 3.344-7.232.312-15.788 1.597-23.651 1.687-10.323 10.646-18.652 12.049-28.798-12.462-7.995-25.486-14.757-38.909-20.255-2.624 6.507-3.49 13.722-2.162 20.618.899 4.671 2.711 9.225 2.662 13.982-.115 11.29-10.417 20.109-12.238 31.252-1.285 7.863 1.747 16.418-1.597 23.651-1.949 4.217-5.85 7.357-7.48 11.708-3.839 10.252 6.936 20.527 17.601 22.996s22.171.738 32.417 4.592c10.473 3.937 20.395 13.615 31.041 10.169z" fill="#00ba66"/><path d="m476.935 376.74c-12.026-12.812-20.001-29.372-22.52-46.762-1.193-8.237-1.2-16.667-3.245-24.735-4.09-16.136-16.085-29.903-17.619-46.479-1.077-11.636 3.656-23.601 12.16-31.572-11.393 4.702-24.272 6.402-34.435 13.423-11.089 7.66-17.566 21.527-16.324 34.947 1.534 16.576 13.529 30.342 17.619 46.479 2.045 8.068 2.053 16.498 3.245 24.735 2.519 17.39 10.494 33.95 22.52 46.762 5.714 6.087 12.251 11.287 19.063 16.14 8.048-9.869 15.2-20.223 21.467-30.952-.652-.653-1.299-1.312-1.931-1.986z" fill="#00ba66"/><path d="m274.51 45.407c1.188-3.263 1.526-6.802 2.875-10.002 2.878-6.829 9.99-14.265 12.306-21.304.07-.213.122-.428.182-.642-7.107-.622-14.235-.949-21.364-.949v.031c-21.084 0-42.166 2.728-62.678 8.166 3.701 8.709 9.472 18.189 16.702 23.479 3.1 2.268 6.566 4.311 8.537 7.609 1.112 1.861 1.679 4.025 2.927 5.797 2.277 3.233 6.342 4.579 10.125 5.728 2.931.89 5.94 1.79 8.998 1.598s6.224-1.708 7.517-4.486c1.231-2.642.989-6.464 3.668-7.612.978-.419 2.091-.31 3.144-.46 3.437-.491 5.873-3.69 7.061-6.953z" fill="#43cb8e"/><path d="m289.872 13.461c-7.223-.632-14.382-.952-21.363-.952v.031c-20.478 0-41.942 2.65-62.678 8.166 2.828 6.655 6.868 13.753 11.841 19.095 22.621-11.726 46.695-19.669 71.287-23.823.599-1.376.73-1.857.913-2.517z" fill="#00ba66"/><path d="m264.217 280.482-14.649-14.649c-1.686-1.686-2.757-3.755-3.22-5.929-47.1 45.69-93.953 86.613-133.929 116.87-35.9 27.171-57.616 39.284-69.97 44.68-2.147.938-4.315-1.243-3.376-3.39 3.455-7.902 9.66-19.635 20.786-36.454-.295-.489-.577-.984-.869-1.475-4.827-8.54-16.77-34.091-16.77-34.091-15.084 21.202-26.243 39.413-33.209 54.229-4.673 9.939-17.085 36.34-1.093 52.331 5.181 5.181 11.769 7.821 20.068 7.821 19.896 0 49.609-15.187 93.226-46.968 44.042-32.091 96.695-77.542 150.219-129.551-2.637-.267-5.199-1.408-7.214-3.424z" fill="#fee55a"/><path d="m249.568 265.833c-1.686-1.686-2.757-3.755-3.22-5.929-47.1 45.69-93.953 86.613-133.929 116.87-18.556 14.044-33.321 24.064-44.963 31.213l-.001-.001c-7.662 4.706-16.733 9.855-25.005 13.468-1.825.798-3.659-.661-3.592-2.435-.001.003-3.807 17.094 22.393 5.011 12.353-5.396 34.07-17.509 69.97-44.68 37.246-28.191 80.462-65.642 124.285-107.58z" fill="#ffd301"/><path d="m26.717 455.18c-15.992-15.992-3.58-42.392 1.093-52.331 5.257-11.18 12.903-24.295 22.819-39.167-4.345-8.941-8.41-17.638-8.41-17.638-15.084 21.202-26.243 39.413-33.209 54.229-4.673 9.939-17.085 36.34-1.093 52.331 5.181 5.181 11.769 7.821 20.068 7.821 1.74 0 3.56-.123 5.454-.357-2.465-1.24-4.702-2.868-6.722-4.888z" fill="#ffd301"/><path d="m407.319 279.725-37.861-83.93-39.694 38.028 55.382 64.684c2.109 2.463 5.868 2.608 8.161.316l12.875-12.874c1.636-1.637 2.089-4.115 1.137-6.224z" fill="#b1dbfc"/><path d="m402.341 282.697-55.695-65.049-16.882 16.174 55.382 64.684c2.109 2.463 5.868 2.608 8.161.316l12.874-12.875c.381-.381.691-.811.941-1.268-1.749.131-3.542-.534-4.781-1.982z" fill="#8bcaff"/><path d="m334.256 160.592-83.931-37.862c-2.109-.951-4.587-.498-6.222 1.137l-12.874 12.875c-2.293 2.293-2.147 6.052.316 8.161l64.684 55.382z" fill="#b1dbfc"/><path d="m245.403 129.657c-1.549-1.327-2.202-3.288-1.938-5.151l-12.237 12.237c-2.292 2.293-2.147 6.052.316 8.161l64.684 55.382 14.27-14.894z" fill="#8bcaff"/><path d="m316.972 300.655-8.96-45.993-27.137 25.998c-1.565 1.5-3.438 2.477-5.406 2.957l15.614 30.234c1.487 2.881 5.114 3.885 7.871 2.179l15.484-9.58c1.967-1.216 2.977-3.524 2.534-5.795z" fill="#ff656f"/><path d="m249.39 249.175 25.998-27.137-45.993-8.96c-2.271-.443-4.579.566-5.796 2.534l-9.58 15.484c-1.706 2.757-.702 6.383 2.179 7.871l30.234 15.614c.481-1.967 1.458-3.841 2.958-5.406z" fill="#ff656f"/><path d="m301.247 285.449c-1.698-3.287-.863-7.215 1.822-9.76.016-.015.031-.03.047-.045l7.57-7.253-2.675-13.73-27.137 25.998c-1.565 1.5-3.438 2.477-5.406 2.957l15.614 30.233c1.487 2.881 5.114 3.886 7.871 2.179l13.707-8.48z" fill="#ff4756"/><path d="m238.441 233.951c-2.881-1.487-3.885-5.113-2.179-7.87l6.441-10.41-13.307-2.592c-2.271-.443-4.579.566-5.796 2.534l-9.58 15.483c-1.706 2.758-.702 6.383 2.179 7.871l30.234 15.615c.48-1.968 1.457-3.841 2.957-5.406l6.133-6.402z" fill="#ff4756"/><path d="m418.449 122.144c-1.179-5.258-5.285-9.365-10.543-10.544-13.732-3.078-28.073 1.252-37.809 11.413l-121.422 126.74c-4.5 4.697-4.421 12.13.179 16.73l14.712 14.712c4.6 4.6 12.033 4.679 16.73.179l126.74-121.422c10.162-9.734 14.491-24.076 11.413-37.808z" fill="#dfebfa"/><path d="m265.337 282.237c-4.6-4.6-4.679-12.032-.179-16.73l121.422-126.74c8.505-8.877 20.526-13.302 32.584-12.226-.162-1.468-.388-2.936-.715-4.396-1.179-5.258-5.285-9.365-10.544-10.543-13.732-3.078-28.073 1.252-37.809 11.413l-121.422 126.74c-4.5 4.697-4.421 12.13.179 16.73l14.712 14.712c.856.856 1.81 1.554 2.826 2.096z" fill="#b1dbfc"/></svg>