<svg id="Capa_1" enable-background="new 0 0 512 512" height="512" viewBox="0 0 512 512" width="512" xmlns="http://www.w3.org/2000/svg"><g><g><path d="m148.375 478.215-10.332-10.293 18.501-18.432c.034.034.062.072.096.106l10.465 10.426c2.931 2.92 6.76 4.378 10.588 4.378 3.86 0 7.72-1.483 10.656-4.445 5.849-5.9 5.819-15.435-.066-21.298l-37.452-37.313 205.926-204.624-40.923-40.77-311.402 310.779c-5.91 5.889-5.909 15.476.001 21.364l19.603 19.53c5.863 5.841 15.33 5.837 21.188-.01l44.489-45.377 37.484 37.344c2.931 2.92 6.759 4.378 10.588 4.378 3.86 0 7.72-1.483 10.656-4.444 5.849-5.901 5.819-15.436-.066-21.299z" fill="#f4da90"/><path d="m148.375 478.215-10.332-10.293 18.501-18.432c.034.034.062.072.096.106l10.465 10.426c2.931 2.92 6.76 4.378 10.588 4.378 3.86 0 7.72-1.483 10.656-4.445 5.849-5.9 5.819-15.435-.066-21.298l-37.452-37.313 205.926-204.624-21.065-20.986-321.382 322.199 9.726 9.689c5.863 5.841 15.33 5.837 21.188-.01l44.489-45.377 37.484 37.344c2.931 2.92 6.759 4.378 10.588 4.378 3.86 0 7.72-1.483 10.656-4.444 5.849-5.9 5.819-15.435-.066-21.298z" fill="#e7aa60"/></g><g><path d="m459.602 238.277c13.917-13.865 21.581-32.305 21.58-51.926 0-16.478-5.424-32.112-15.4-44.914 8.973-3.566 17.384-8.941 24.638-16.167 13.916-13.866 21.58-32.306 21.58-51.926s-7.664-38.061-21.58-51.926c-28.666-28.558-75.307-28.558-103.972 0-7.185 7.158-12.688 15.543-16.345 24.673-28.818-22.341-70.612-20.345-97.086 6.03-13.917 13.865-21.581 32.305-21.58 51.926 0 19.62 7.664 38.06 21.58 51.925 14.332 14.279 33.159 21.419 51.986 21.419 3.241 0 6.48-.238 9.698-.662-.416 3.166-.651 6.375-.651 9.623 0 19.62 7.664 38.061 21.581 51.926 14.333 14.279 33.159 21.418 51.986 21.418 18.825-.001 37.652-7.14 51.985-21.419zm-21.168-208.186c11.156 0 22.315 4.232 30.808 12.693 8.198 8.169 12.714 19.022 12.714 30.56s-4.515 22.392-12.714 30.56c-16.988 16.923-44.628 16.923-61.617 0-8.198-8.168-12.714-19.022-12.714-30.56 0-11.539 4.515-22.392 12.714-30.56 8.495-8.463 19.65-12.693 30.809-12.693zm-144.239 104.516c-8.199-8.168-12.714-19.021-12.714-30.56s4.515-22.392 12.714-30.56c8.495-8.463 19.65-12.694 30.808-12.694 11.156 0 22.315 4.232 30.808 12.693 8.199 8.169 12.714 19.022 12.714 30.561s-4.515 22.392-12.714 30.56c-16.988 16.924-44.628 16.924-61.616 0zm82.613 82.305c-8.199-8.169-12.714-19.022-12.714-30.561.001-11.538 4.516-22.392 12.714-30.56 8.494-8.462 19.651-12.693 30.808-12.693s22.314 4.231 30.808 12.693c8.199 8.168 12.714 19.021 12.714 30.56s-4.515 22.392-12.714 30.561c-16.988 16.923-44.628 16.923-61.616 0z" fill="#e7aa60"/><path d="m459.602 238.277c13.917-13.865 21.581-32.305 21.58-51.926 0-16.478-5.424-32.112-15.4-44.914 8.973-3.566 17.384-8.941 24.638-16.167 13.916-13.866 21.58-32.306 21.58-51.926s-7.664-38.061-21.58-51.926c-.135-.135-.277-.258-.413-.391l-21.247 21.3c.159.154.324.299.482.456 8.198 8.169 12.714 19.022 12.714 30.56s-4.515 22.392-12.714 30.56c-16.988 16.923-44.628 16.923-61.617 0-.048-.048-.092-.098-.14-.146l-72.785 72.971c-.416 3.166-.651 6.375-.651 9.623 0 19.62 7.664 38.061 21.581 51.926 14.333 14.279 33.159 21.418 51.986 21.418 18.826 0 37.653-7.139 51.986-21.418zm-82.794-21.365c-8.199-8.169-12.714-19.022-12.714-30.561.001-11.538 4.516-22.392 12.714-30.56 8.494-8.462 19.651-12.693 30.808-12.693s22.314 4.231 30.808 12.693c8.199 8.168 12.714 19.021 12.714 30.56s-4.515 22.392-12.714 30.561c-16.988 16.923-44.628 16.923-61.616 0z" fill="#e48d3c"/></g></g></svg>