<svg id="Capa_1" enable-background="new 0 0 505.021 505.021" height="512" viewBox="0 0 505.021 505.021" width="512" xmlns="http://www.w3.org/2000/svg"><g><g><path d="m445.004 319.625c-.126 1.269-.2 2.56-.2 3.871 0 20.3 16.471 36.771 36.771 36.771.294 0 .588-.01.871-.021v43.591c0 19.293-15.632 34.935-34.925 34.935h-392.587c-19.293 0-34.935-15.642-34.935-34.935v-43.591c3.336-.084 6.557-.598 9.62-1.511 15.202-4.522 26.28-18.58 26.28-35.24 0-9.075-3.284-17.373-8.729-23.773-.021-.031-.052-.073-.094-.105-6.557-7.68-16.24-12.621-27.078-12.873v-37.81c0-19.293 15.642-34.935 34.935-34.935h392.588c19.293 0 34.925 15.642 34.925 34.935v37.81c-.283-.01-.577-.021-.871-.021-18.988.002-34.63 14.406-36.571 32.902z" fill="#0067c5"/><path d="m482.447 248.936v37.81c-.283-.01-.577-.021-.871-.021-18.989 0-34.631 14.404-36.572 32.9l-360.422 103.747c-18.548 5.34-37.894-5.371-43.234-23.909l-11.729-40.727c15.202-4.522 26.28-18.58 26.28-35.24 0-9.075-3.284-17.373-8.729-23.773-.021-.031-.052-.073-.094-.105-6.557-7.68-16.24-12.621-27.078-12.873v-37.81c0-19.293 15.642-34.935 34.935-34.935h392.588c19.294.001 34.926 15.643 34.926 34.936z" fill="#0055a3"/><path d="m437.741 173.605c5.616 19.512 25.994 30.781 45.506 25.165.279-.08.555-.171.831-.262l12.06 41.898c5.337 18.541-5.365 37.894-23.906 43.23l-377.271 108.591c-18.541 5.337-37.894-5.365-43.23-23.906l-12.06-41.898c19.002-5.951 29.87-26.011 24.334-45.245s-25.405-30.447-44.663-25.385l-10.459-36.338c-5.337-18.541 5.365-37.894 23.906-43.23l377.271-108.591c18.541-5.337 37.894 5.365 43.23 23.906l10.459 36.338c-.282.07-.564.14-.843.22-19.512 5.617-30.781 25.995-25.165 45.507z" fill="#d3e1f5"/><path d="m452.954 90.475c-5.761-17.879-24.713-28.073-42.894-22.84l-377.271 108.589c-17.844 5.136-28.421 23.255-24.433 41.138z" fill="#b3ceec"/><path d="m290.669 101.999 62.172 216.003-257.88 74.226c-18.541 5.337-37.894-5.365-43.23-23.906l-12.06-41.898c19.002-5.951 29.87-26.011 24.334-45.245s-25.405-30.447-44.663-25.385l-10.459-36.339c-5.337-18.541 5.365-37.894 23.906-43.23z" fill="#b3ceec"/><path d="m290.669 101.999-257.88 74.226c-11.259 3.258-21.18 12.614-24.141 24.765-1.361 5.211-1.533 10.798-.294 16.363.001.003.001.007.002.01l291.567-83.213z" fill="#98bce5"/><g fill="#d3e1f5"><path d="m185.497 257.613-3.714 64.859 22.737-6.544 17.447-67.693z"/><path d="m180.142 239.01-37.626-52.961 22.737-6.544 50.764 48.06z"/><path d="m109.566 258.204s112.934-39.221 126.37-43.088 28.53 9.694 28.53 9.694-5.575 19.511-19.011 23.378-129.94 30.686-129.94 30.686l-13.972 4.793-18.981-32.475z"/></g><path d="m333.936 111.08h78.509v30.341h-78.509z" fill="#60b7ff" transform="matrix(.961 -.277 .277 .961 -20.361 108.151)"/><path d="m267.342 276.068h43.019v59.151h-43.019z" fill="#fee903" transform="matrix(.961 -.277 .277 .961 -73.272 91.821)"/><path d="m350.172 378.543h82.811v29.038h-82.811z" fill="#ffefd2"/></g><g><path d="m503.346 238.332-12.06-41.898c-.963-3.136-5.074-6.762-10.112-4.871-15.513 4.466-31.761-4.522-36.226-20.032-4.464-15.51 4.522-31.76 20.037-36.226 3.304-.73 7.26-4.162 5.972-9.501l-10.46-36.338c-3.135-10.893-10.322-19.912-20.24-25.396-9.918-5.485-21.378-6.777-32.271-3.644l-377.271 108.591c-10.893 3.135-19.912 10.324-25.396 20.241-5.484 9.918-6.778 21.378-3.643 32.271l10.459 36.338c.099.343.228.669.369.986v27.888c0 4.074 3.253 7.403 7.326 7.498 12.392.288 23.202 8.468 27.057 19.966-2.745 2.209-5.922 3.953-9.456 5.06-3.889 1.217-6.093 5.316-4.966 9.232l5.098 17.713c-5.008 4.083-11.173 6.378-17.733 6.53-4.073.095-7.326 3.424-7.326 7.498v43.6c0 23.396 19.035 42.431 42.432 42.431h94.964c4.143 0 7.5-3.358 7.5-7.5s-3.357-7.5-7.5-7.5h-94.965c-15.126 0-27.432-12.306-27.432-27.431v-36.874c5.129-.975 10.005-2.843 14.442-5.523l2.578 8.954c3.135 10.893 10.322 19.912 20.24 25.396 8.964 4.677 19.948 7.271 32.271 3.643l347.392-99.989c-4.499 6.928-7.114 15.187-7.114 24.044 0 22.158 16.364 40.566 37.642 43.775v36.573c0 15.125-12.306 27.431-27.431 27.431h-261.672c-4.143 0-7.5 3.358-7.5 7.5s3.357 7.5 7.5 7.5h261.672c23.396 0 42.431-19.035 42.431-42.431v-43.6c-.062-3.279-3-7.904-8.371-7.479-16.14 0-29.271-13.13-29.271-29.27s13.131-29.27 29.271-29.27c3.379.218 8.131-1.993 8.371-7.479v-4.246c3.896-3.293 7.207-7.294 9.749-11.892 5.484-9.916 6.778-21.376 3.643-32.269zm-475.842 41.701v-17.906c19.813-.744 34.995 18.877 29.083 37.813-6.47-10.221-16.992-17.561-29.083-19.907zm241.779 8.271 26.926-7.75 12.211 42.428-26.925 7.75zm217.293-24.96c-3.686 6.667-9.438 10.668-16.418 13.085l-112.184 32.29c-2.308-13.846-19.755-8.374-14.414 4.149l-20.725 5.965-14.286-49.635c-.55-1.912-1.837-3.526-3.577-4.489-1.742-.963-3.793-1.194-5.704-.644l-41.341 11.899c-1.912.55-3.526 1.837-4.489 3.578s-1.194 3.792-.644 5.704l14.287 49.635-174.194 50.138c-7.044 2.028-14.452 1.191-20.863-2.354s-11.058-9.376-13.085-16.419l-10.2-35.438c18.009-9.116 27.757-30.226 22.923-49.879-5.321-21.631-25.234-34.887-46.972-33.671l-8.6-29.878c-2.026-7.042-1.19-14.451 2.355-20.862 3.545-6.412 9.376-11.059 16.418-13.085l250.674-72.152.83 2.884c.946 3.287 3.945 5.427 7.203 5.427.688 0 1.386-.095 2.079-.295 3.98-1.146 6.278-5.302 5.132-9.282l-.83-2.882 112.183-32.29c7.043-2.027 14.451-1.191 20.863 2.355 6.411 3.545 11.058 9.376 13.085 16.418l8.516 29.586c-19.56 8.969-30.193 31.185-24.064 52.479 6.129 21.292 26.932 34.46 48.281 31.655l10.116 35.146c2.027 7.041 1.191 14.451-2.355 20.862z"/><path d="m316.248 163.752-5.505-19.126c-1.146-3.981-5.31-6.278-9.281-5.133-3.98 1.146-6.279 5.301-5.133 9.282l5.505 19.126c2.256 8.546 16.505 5.982 14.414-4.149z"/><path d="m331.716 217.489-5.506-19.126c-1.146-3.981-5.307-6.276-9.282-5.133-3.98 1.146-6.278 5.302-5.132 9.282l5.506 19.126c2.257 8.546 16.506 5.982 14.414-4.149z"/><path d="m341.678 252.1c-1.146-3.982-5.31-6.278-9.281-5.133-3.98 1.146-6.279 5.301-5.133 9.282l5.505 19.127c2.257 8.546 16.505 5.983 14.414-4.148z"/><path d="m421.674 133.601c.963-1.741 1.194-3.792.644-5.704l-8.393-29.157c-1.146-3.98-5.306-6.278-9.281-5.133l-75.445 21.715c-3.98 1.146-6.279 5.301-5.133 9.282l8.392 29.157c.55 1.912 1.837 3.526 3.577 4.489 1.121.62 2.371.937 3.63.937.696 0 1.395-.097 2.074-.292l75.446-21.716c1.911-.551 3.526-1.838 4.489-3.578zm-76.877 8.804-4.243-14.743 61.031-17.566 4.243 14.742z"/><path d="m409.867 247.84 40.307-11.602c3.98-1.146 6.279-5.301 5.133-9.282-1.146-3.982-5.309-6.278-9.281-5.133l-40.307 11.602c-3.98 1.146-6.279 5.301-5.133 9.282.946 3.288 3.945 5.427 7.203 5.427.687.001 1.386-.095 2.078-.294z"/><path d="m453.462 247.662-40.307 11.601c-3.98 1.146-6.279 5.301-5.133 9.282.946 3.288 3.945 5.428 7.203 5.428.687 0 1.386-.095 2.078-.294l40.307-11.601c3.98-1.146 6.279-5.301 5.133-9.282-1.147-3.984-5.309-6.28-9.281-5.134z"/><path d="m143.536 325.676-56.843 16.361c-3.98 1.146-6.279 5.301-5.133 9.282.946 3.288 3.945 5.427 7.203 5.427.688 0 1.386-.095 2.078-.294l56.843-16.361c3.98-1.146 6.279-5.301 5.133-9.282s-5.308-6.278-9.281-5.133z"/><path d="m432.982 415.081c4.143 0 7.5-3.358 7.5-7.5v-29.038c0-4.142-3.357-7.5-7.5-7.5h-82.811c-4.143 0-7.5 3.358-7.5 7.5v29.038c0 4.142 3.357 7.5 7.5 7.5zm-75.31-29.038h67.811v14.038h-67.811z"/><path d="m313.449 399.059c4.143 0 7.5-3.358 7.5-7.5s-3.357-7.5-7.5-7.5h-79.732c-4.143 0-7.5 3.358-7.5 7.5s3.357 7.5 7.5 7.5z"/><path d="m233.862 207.909c-2.964.853-10.535 3.345-20.59 6.729l-42.863-40.579c-1.929-1.825-4.677-2.496-7.23-1.761l-22.736 6.544c-3.599 1.115-7.312 6.009-4.04 11.551l28.863 40.627c-24.939 8.578-48.694 16.815-56.013 19.355l-24.805-6.44c-5.134-1.43-11.746 4.338-8.36 11.044l18.98 32.475c2.316 2.337 3.624 4.577 8.909 3.31l13.602-4.667c4.106-.946 31.109-7.167 59.565-13.807l-2.848 49.755c.599 3.616 1.617 8.75 9.562 7.636l22.737-6.544c2.553-.735 4.525-2.764 5.188-5.335l14.731-57.157c10.311-2.478 18.052-4.394 21.015-5.246 16.942-4.876 23.461-26.119 24.148-28.525.788-2.757-.065-5.723-2.198-7.64-1.862-1.675-18.687-16.199-35.617-11.325zm-79.104-17.579 8.451-2.432 33.995 32.184c-5.478 1.865-11.259 3.841-17.146 5.859zm43.569 119.576-8.451 2.433 2.496-43.611c6.059-1.421 12.007-2.821 17.639-4.153zm45.054-68.925c-3.196.92-12.493 3.2-24.726 6.122-.007.001-.014.002-.021.003-5.077 1.213-10.893 2.593-17.384 4.123-.402.095-.803.189-1.208.285-.214.05-.431.101-.646.152-37.498 8.831-84.82 19.728-85.563 19.899-.254.059-.505.13-.751.215l-8.162 2.8-6.776-11.593 9.538 2.477c1.435.373 2.945.312 4.346-.174.719-.25 46.51-16.148 82.948-28.598 1.128-.385 2.253-.769 3.341-1.141.066-.023.132-.045.198-.068 5.659-1.93 10.767-3.666 15.281-5.192.005-.001.009-.004.013-.005 11.917-4.029 21.006-7.042 24.203-7.962 5.574-1.606 12.789 1.964 17.487 5.085-2.303 5.133-6.494 11.954-12.118 13.572z"/></g></g></svg>